<?xml version="1.0" standalone="no"?>
<!DOCTYPE svg PUBLIC "-//W3C//DTD SVG 20010904//EN"
 "http://www.w3.org/TR/2001/REC-SVG-20010904/DTD/svg10.dtd">
<svg version="1.0" xmlns="http://www.w3.org/2000/svg"
 width="680.000000pt" height="188.000000pt" viewBox="0 0 680.000000 188.000000"
 preserveAspectRatio="xMidYMid meet">

<g transform="translate(0.000000,188.000000) scale(0.100000,-0.100000)"
fill="#000000" stroke="none">
<path d="M825 1863 c-193 -30 -389 -125 -505 -242 l-45 -46 3 -223 3 -224 36
28 c43 32 111 59 176 69 l47 7 0 -56 c0 -54 -1 -56 -27 -56 -34 0 -110 -34
-140 -62 -12 -12 -27 -44 -34 -74 -16 -73 1 -132 52 -178 35 -32 58 -41 129
-48 22 -3 25 -8 28 -50 l3 -48 -63 0 c-71 0 -136 25 -181 67 l-27 27 0 -226 0
-226 50 -45 c280 -252 692 -307 1030 -137 71 36 205 135 251 187 99 110 166
227 215 373 26 80 28 96 28 260 1 194 -9 246 -79 396 -117 255 -351 445 -625
509 -74 17 -266 28 -325 18z m-60 -688 l0 -50 -67 -3 -68 -3 0 49 c0 27 3 52
7 56 4 4 34 6 68 4 l60 -3 0 -50z m223 46 l43 -1 -3 -47 c-3 -44 -5 -48 -30
-51 l-28 -3 -2 -232 -3 -232 -50 0 -50 0 -3 275 c-1 151 0 280 2 287 3 8 19
11 43 9 21 -3 57 -5 81 -5z m192 -24 l43 -23 45 23 c70 36 82 32 82 -24 0 -43
-3 -50 -30 -65 -17 -9 -35 -29 -40 -43 -6 -15 -10 -114 -10 -221 l0 -194 -45
0 -45 0 -1 63 c-1 34 -4 132 -8 217 l-6 155 -32 20 c-29 18 -32 25 -33 68 0
56 13 60 80 24z m303 9 c50 -21 94 -77 106 -138 7 -31 10 -129 9 -233 l-3
-180 -47 -3 -46 -3 -4 211 -3 212 -32 29 c-28 24 -33 36 -33 74 0 49 5 52 53
31z m-715 -498 l3 -48 -75 0 -76 0 0 43 c0 24 3 47 7 51 4 4 37 6 73 4 l65 -3
3 -47z"/>
<path d="M2250 955 c0 -597 3 -905 10 -905 7 0 10 308 10 905 0 597 -3 905
-10 905 -7 0 -10 -308 -10 -905z"/>
<path d="M3988 1339 c-15 -8 -18 -25 -18 -94 l0 -85 -45 0 c-38 0 -45 -3 -45
-19 0 -16 8 -20 43 -23 l42 -3 5 -196 c4 -144 9 -200 19 -212 19 -23 76 -32
122 -18 32 10 39 16 39 37 0 21 -3 23 -19 14 -27 -14 -84 -13 -99 2 -8 8 -12
66 -12 195 l0 183 65 0 c58 0 65 2 65 20 0 18 -7 20 -65 20 l-65 0 0 95 c0 52
-3 95 -7 95 -5 0 -16 -5 -25 -11z"/>
<path d="M4255 1324 c-18 -19 -16 -33 8 -48 18 -11 47 0 54 21 4 12 -23 43
-37 43 -5 0 -16 -7 -25 -16z"/>
<path d="M6054 1169 c-48 -14 -94 -71 -94 -118 0 -66 46 -106 167 -145 100
-33 131 -83 77 -125 -47 -37 -132 -21 -168 31 -14 20 -18 20 -56 9 -22 -6 -40
-17 -40 -23 0 -6 19 -30 43 -53 113 -114 337 -61 337 80 0 77 -42 116 -170
160 -82 28 -100 40 -100 66 0 50 93 68 144 28 21 -16 35 -20 61 -15 45 9 49
18 23 51 -43 55 -141 78 -224 54z"/>
<path d="M2770 1148 c-80 -41 -115 -121 -108 -249 5 -90 27 -139 82 -183 34
-28 45 -31 104 -31 79 1 124 21 152 68 20 32 20 32 0 41 -15 7 -25 2 -48 -22
-52 -56 -136 -60 -189 -10 -51 48 -68 210 -29 285 43 85 142 105 206 42 31
-31 37 -33 59 -20 22 14 -20 65 -69 85 -56 22 -108 20 -160 -6z"/>
<path d="M3217 1155 c-48 -17 -83 -48 -110 -100 -32 -60 -31 -192 2 -258 54
-110 195 -150 300 -86 30 18 32 22 19 35 -12 13 -19 13 -51 -1 -52 -21 -125
-19 -165 5 -36 22 -71 88 -72 133 l0 27 176 0 176 0 -7 58 c-13 103 -42 152
-110 183 -47 22 -105 23 -158 4z m153 -54 c32 -23 60 -77 60 -118 l0 -33 -145
0 -145 0 0 25 c0 60 50 127 106 145 38 12 93 3 124 -19z"/>
<path d="M3725 1156 c-17 -7 -43 -28 -58 -45 l-27 -33 0 41 c0 37 -2 41 -25
41 l-25 0 0 -235 0 -235 24 0 24 0 4 163 c4 181 12 211 71 248 24 15 44 19 80
16 37 -3 50 -1 54 11 14 36 -63 54 -122 28z"/>
<path d="M4492 1150 c-31 -14 -47 -29 -58 -56 -32 -76 6 -125 137 -179 92 -38
129 -71 129 -115 0 -33 -34 -65 -80 -75 -34 -7 -92 9 -132 36 -26 19 -58 17
-58 -5 0 -15 59 -54 101 -66 51 -15 99 -12 145 9 53 24 74 55 74 108 0 62 -41
104 -133 139 -97 36 -134 59 -141 89 -20 81 97 119 193 64 29 -17 36 -18 48
-6 12 11 11 16 -6 31 -51 46 -149 58 -219 26z"/>
<path d="M5105 1115 l-6 -55 -45 0 c-37 0 -44 -3 -44 -19 0 -11 -3 -26 -6 -35
-5 -13 2 -16 36 -16 l43 0 -7 -46 c-8 -61 -11 -64 -55 -64 -35 0 -39 -3 -43
-30 -4 -29 -3 -30 35 -30 l39 0 -7 -65 -7 -65 35 0 c38 0 36 -3 53 93 6 37 6
37 56 37 49 0 49 0 44 -27 -3 -16 -8 -45 -12 -66 l-6 -38 38 3 39 3 10 60 10
60 41 3 c38 3 42 6 46 33 4 28 3 29 -34 29 -42 0 -43 3 -32 73 6 36 8 37 49
37 41 0 43 1 47 35 4 35 4 35 -35 35 l-39 0 7 55 6 55 -35 0 c-37 0 -39 -3
-51 -72 l-6 -38 -50 0 c-43 0 -50 3 -46 18 3 9 8 34 12 55 l6 37 -39 0 -40 0
-7 -55z m152 -142 c-3 -10 -8 -35 -12 -56 l-6 -38 -47 3 c-50 3 -49 1 -37 71
l6 37 50 0 c43 0 50 -3 46 -17z"/>
<path d="M5490 930 l0 -240 98 0 c111 0 176 16 226 54 105 79 107 282 5 369
-53 46 -97 57 -223 57 l-106 0 0 -240z m245 146 c62 -41 85 -125 58 -208 -25
-74 -63 -98 -154 -98 l-69 0 0 158 c0 87 3 162 8 166 12 13 130 -1 157 -18z"/>
<path d="M6390 930 l0 -240 45 0 45 0 0 90 0 90 71 0 c148 0 219 44 227 142 3
44 0 59 -20 88 -40 60 -74 70 -230 70 l-138 0 0 -240z m281 141 c27 -34 24
-75 -7 -100 -22 -17 -41 -21 -105 -21 l-79 0 0 76 0 76 86 -3 c76 -4 88 -7
105 -28z"/>
<path d="M4260 925 l0 -235 25 0 25 0 0 235 0 235 -25 0 -25 0 0 -235z"/>
</g>
</svg>
